<svg xmlns="http://www.w3.org/2000/svg" viewBox="0 0 112 112" role="img" aria-labelledby="title">
  <title id="title">CencoPay</title>
  <circle cx="56" cy="56" r="51" fill="none" stroke="#ffffff" stroke-width="5" />
  <circle cx="86" cy="20" r="9" fill="#0500c4" stroke="#ffffff" stroke-width="3" />
  <svg x="23" y="38" width="66" height="18" viewBox="0 0 46 12">
    <path d="M3.12559 2.99984C3.35905 2.76638 3.62539 2.58388 3.9164 2.46715C4.50663 2.23369 5.13138 2.23369 5.71339 2.46715C6.0044 2.58388 6.27074 2.75816 6.51242 2.99984L7.26049 3.72324L8.71715 2.25013L7.99375 1.52673C7.56136 1.09433 7.05333 0.760581 6.5042 0.553425C5.42239 0.104587 4.24193 0.104587 3.13545 0.553425C2.59455 0.770446 2.09474 1.09433 1.65412 1.53495C1.22173 1.96735 0.887976 2.46715 0.672599 3.01628C0.463799 3.55719 0.356934 4.12275 0.356934 4.70476C0.356934 5.28677 0.465444 5.8359 0.672599 6.37681C0.879755 6.91772 1.21351 7.41752 1.65412 7.85814C2.09474 8.29876 2.58633 8.63251 3.13545 8.8561C3.6928 9.06326 4.25837 9.17177 4.82394 9.17177C5.38951 9.17177 5.95508 9.06326 6.49598 8.8561C7.05333 8.63086 7.55314 8.29876 7.99375 7.85814L8.71715 7.13474L7.26049 5.63697L6.5042 6.36859C6.27896 6.60205 6.02248 6.77632 5.72983 6.89305C5.43883 7.00978 5.13138 7.06733 4.81407 7.06733C4.14821 7.06733 3.59909 6.83387 3.12559 6.36037C2.89213 6.12691 2.70963 5.86056 2.5929 5.56956C2.47617 5.27855 2.41863 4.97111 2.41863 4.67188C2.41863 4.37266 2.47617 4.06521 2.5929 3.77421C2.70963 3.49142 2.88391 3.22508 3.12559 2.99984Z" fill="#ffffff" />
    <path d="M16.9015 1.52673C16.4691 1.09433 15.961 0.760581 15.4119 0.553425C14.3301 0.104587 13.1496 0.104587 12.0432 0.553425C11.5023 0.770446 11.0025 1.09433 10.5618 1.53495C10.1212 1.96735 9.79569 2.46715 9.58031 3.01628C9.37316 3.55719 9.26465 4.12276 9.26465 4.68832C9.26465 5.25389 9.37316 5.82768 9.58031 6.37681C9.79733 6.91772 10.1212 7.41752 10.5618 7.85814C10.986 8.28232 11.4776 8.6062 12.0185 8.83144C12.5594 9.05668 13.1332 9.17177 13.7317 9.17177C14.3301 9.17177 14.9039 9.05504 15.4448 8.83144C15.9857 8.6062 16.4756 8.28232 16.9015 7.85814L17.6331 7.12652L16.16 5.65341L15.4366 6.38503C15.0535 6.7681 14.6211 6.9917 14.1131 7.07555C13.9964 7.09199 13.8796 7.10021 13.7629 7.10021C13.4883 7.10021 13.222 7.05089 12.9556 6.95882L17.6397 2.27479L16.8998 1.52673H16.9015ZM13.707 2.29288C13.9898 2.29288 14.2561 2.3422 14.5225 2.43427C14.3728 2.58388 14.1821 2.76638 13.9651 2.97518L11.4776 5.46269C11.3855 5.21279 11.3362 4.94645 11.3362 4.6801C11.3362 4.01425 11.5697 3.46512 12.0432 2.99162C12.418 2.61676 12.8586 2.39317 13.3404 2.32576C13.4653 2.3011 13.582 2.29288 13.707 2.29288Z" fill="#ffffff" />
    <path d="M25.8207 1.52662C25.413 1.11889 24.9313 0.795003 24.3904 0.569762C23.3414 0.0962623 22.0114 0.0880419 20.9213 0.569762C20.3804 0.795003 19.8987 1.11889 19.4827 1.52662C19.0832 1.92614 18.7676 2.39964 18.5259 2.94055C18.3006 3.47323 18.1855 4.05524 18.1855 4.67178V9.15522H20.2735V4.67178C20.2735 4.34789 20.3311 4.0388 20.4478 3.75602C20.581 3.46501 20.747 3.20689 20.9641 2.99973C21.1893 2.77449 21.4376 2.60844 21.7204 2.48349C22.3024 2.22536 22.9929 2.22536 23.593 2.48349C23.884 2.60022 24.1339 2.76627 24.3493 2.99973C24.5663 3.20853 24.7406 3.45679 24.8573 3.75602C24.9822 4.03058 25.048 4.33803 25.048 4.66356V9.147H27.136V4.66356C27.136 4.0388 27.011 3.45679 26.7776 2.93232C26.5523 2.39964 26.2285 1.92614 25.8207 1.52662Z" fill="#ffffff" />
    <path d="M30.5455 2.99984C30.779 2.76638 31.0453 2.58388 31.3363 2.46715C31.9183 2.23369 32.5513 2.23369 33.1333 2.46715C33.4243 2.58388 33.6907 2.75816 33.9323 2.99984L34.6804 3.72324L36.1371 2.25013L35.4137 1.52673C34.9813 1.09433 34.4732 0.760581 33.9241 0.553425C32.8423 0.104587 31.6618 0.104587 30.5554 0.553425C30.0145 0.770446 29.5147 1.09433 29.074 1.53495C28.6416 1.96735 28.3079 2.46715 28.0925 3.01628C27.8837 3.55719 27.7769 4.12275 27.7769 4.70476C27.7769 5.28677 27.8854 5.8359 28.0925 6.37681C28.3013 6.91772 28.6334 7.41752 29.074 7.85814C29.5147 8.29876 30.0062 8.63251 30.5554 8.8561C31.1127 9.06326 31.6783 9.17177 32.2439 9.17177C32.8094 9.17177 33.375 9.06326 33.9159 8.8561C34.4733 8.63086 34.9731 8.29876 35.4137 7.85814L36.1371 7.13474L34.6804 5.66163L33.9241 6.39325C33.6989 6.62671 33.4424 6.80099 33.1498 6.91772C32.8588 7.03445 32.5513 7.09199 32.234 7.09199C31.5681 7.09199 31.019 6.85853 30.5455 6.38503C30.312 6.15157 30.1296 5.88522 30.0128 5.59422C29.8961 5.30322 29.8386 4.99577 29.8386 4.69654C29.8386 4.39732 29.8961 4.08987 30.0128 3.79887C30.1378 3.49142 30.312 3.22508 30.5455 2.99984Z" fill="#ffffff" />
    <path d="M44.3315 1.52662C43.9237 1.11889 43.442 0.795003 42.9011 0.569762C41.8522 0.0962623 40.5221 0.0880419 39.4321 0.569762C38.8912 0.795003 38.4094 1.11889 37.9935 1.52662C37.594 1.92614 37.2783 2.39964 37.0366 2.94055C36.8114 3.47323 36.6963 4.05524 36.6963 4.67178C36.6963 5.28831 36.813 5.8621 37.0366 6.41123C37.2701 6.95214 37.594 7.43386 37.9935 7.84159C38.4012 8.24933 38.8829 8.58143 39.4321 8.81489C39.973 9.04014 40.555 9.15522 41.1633 9.15522C41.7716 9.15522 42.3701 9.03849 42.9027 8.81489C43.4437 8.58143 43.9254 8.24933 44.3331 7.84159C44.7408 7.43386 45.0647 6.95214 45.29 6.41123C45.5317 5.87032 45.6484 5.28009 45.6484 4.67178C45.6484 4.06346 45.5234 3.46501 45.29 2.94055C45.0647 2.39964 44.7408 1.91792 44.3331 1.52662M43.5571 4.68C43.5571 5.00388 43.4913 5.3212 43.3664 5.62042C43.2497 5.91143 43.0754 6.16955 42.8584 6.39479C42.6496 6.60194 42.3931 6.77786 42.1021 6.90281C41.5201 7.13628 40.8049 7.13628 40.2294 6.90281C39.9302 6.76964 39.6721 6.59537 39.4551 6.39479C39.2381 6.16955 39.072 5.9032 38.9388 5.62042C38.8221 5.32942 38.7646 5.01375 38.7646 4.68C38.7646 4.34625 38.8221 4.04702 38.9388 3.76424C39.072 3.47323 39.2381 3.21511 39.4551 3.00795C39.6803 2.78271 39.9368 2.61666 40.2377 2.49171C40.5287 2.36676 40.8443 2.30099 41.1699 2.30099C41.4954 2.30099 41.8111 2.36676 42.1103 2.49993C42.4013 2.61666 42.6512 2.78271 42.8666 3.01618C43.0836 3.22498 43.2579 3.47323 43.3746 3.77246C43.4913 4.04702 43.5571 4.34625 43.5571 4.68Z" fill="#ffffff" />
  </svg>
  <svg x="24" y="55" width="64" height="29" viewBox="0 0 44 20" fill="none">
    <path d="M28.5397 7.00866V0.502981H25.5869V1.39244C24.4886 0.636153 23.1569 0.185669 21.7183 0.185669C17.9501 0.185669 14.897 3.23875 14.897 7.00702C14.897 10.7753 17.9501 13.8284 21.7183 13.8284C23.1569 13.8284 24.4886 13.3877 25.5869 12.6216V13.5111H28.5397V7.00537V7.00866ZM21.7167 10.8772C19.5794 10.8772 17.8481 9.14599 17.8481 7.00866C17.8481 4.87134 19.5794 3.14011 21.7167 3.14011C23.854 3.14011 25.5852 4.87134 25.5852 7.00866C25.5852 9.14599 23.854 10.8772 21.7167 10.8772Z" fill="#FFAC2C" />
    <path d="M40.9692 0.503094V7.00878C40.9692 9.1461 39.238 10.8773 37.1006 10.8773C34.9633 10.8773 33.2321 9.1461 33.2321 7.00878V0.503094H30.2793V7.00878C30.2793 9.33846 31.4433 11.3936 33.2321 12.625C34.3303 13.3813 35.6621 13.8318 37.1006 13.8318C38.5392 13.8318 39.8709 13.3912 40.9692 12.625C40.9528 14.7459 39.2298 16.4607 37.1006 16.4607V16.4525H35.7854V19.4053H37.1006C38.5392 19.4053 39.8709 18.9646 40.9692 18.1985C42.7498 16.9671 43.922 14.9119 43.922 12.5823V0.494873H40.9692V0.503094Z" fill="#00C7F9" />
    <path d="M6.89947 0.194092C3.35481 0.194092 0.434894 2.90685 0.111008 6.36766H0.078125V19.379H3.03092V12.6234C4.12917 13.3797 5.46089 13.8302 6.89947 13.8302C10.6677 13.8302 13.7208 10.7771 13.7208 7.00887C13.7126 3.2406 10.6595 0.195737 6.89947 0.195737V0.194092ZM6.89947 10.8774C4.76215 10.8774 3.03092 9.14619 3.03092 7.00887C3.03092 4.87154 4.76215 3.14031 6.89947 3.14031C9.0368 3.14031 10.768 4.87154 10.768 7.00887C10.768 9.14619 9.02858 10.8774 6.89947 10.8774Z" fill="#F04B67" />
  </svg>
</svg>
